<?xml version="1.0" encoding="utf-8"?>
<!-- Generator: Adobe Illustrator 19.2.1, SVG Export Plug-In . SVG Version: 6.00 Build 0)  -->
<svg version="1.1" id="Layer_1" xmlns="http://www.w3.org/2000/svg" xmlns:xlink="http://www.w3.org/1999/xlink" x="0px" y="0px"
	 width="841.9px" height="595.3px" viewBox="0 0 841.9 595.3" enable-background="new 0 0 841.9 595.3" xml:space="preserve">
<g>
	<g>
		<g>
			<path fill="#FFC62D" d="M258.5,254.4L258.5,254.4l116.3,0v0c0-18.9-15.3-34.2-34.2-34.2h-47.9
				C273.8,220.2,258.5,235.5,258.5,254.4z"/>
			<g>
				<g>
					<circle fill="#F8AA97" cx="362.1" cy="157.3" r="12.7"/>
					<circle fill="#F58A74" cx="362.1" cy="157.3" r="7.5"/>
				</g>
				<g>
					<circle fill="#F8AA97" cx="271.2" cy="157.3" r="12.7"/>
					<circle fill="#F58A74" cx="271.2" cy="157.3" r="7.5"/>
				</g>
			</g>
			<path fill="#FAA62C" d="M316.6,240.4c10.1,0,18.2-8.2,18.2-18.2v-2h-36.5v2C298.4,232.2,306.6,240.4,316.6,240.4z"/>
			<path fill="#F8AA97" d="M304.8,183.5v38.7c0,6.5,5.3,11.9,11.9,11.9h0c6.5,0,11.9-5.3,11.9-11.9v-38.7H304.8z"/>
			<path fill="#F58A74" d="M304.8,202.8c0,6.5,5.2,12,11.7,12.1c0,0,0.1,0,0.1,0l0,0c0,0,0.1,0,0.1,0c6.5,0,11.7-5.5,11.7-12.1
				v-15.6h-23.7V202.8z"/>
			<path fill="#F8AA97" d="M275.4,122.5v40.6c0,22.7,18.4,41.2,41.2,41.2h0c22.7,0,41.2-18.4,41.2-41.2v-40.6
				c0-15.3-12.4-27.7-27.7-27.7h-27C287.8,94.8,275.4,107.2,275.4,122.5z"/>
			<g>
				<circle fill="#562617" cx="294.5" cy="144.6" r="4.9"/>
				<circle fill="#562617" cx="338.7" cy="144.6" r="4.9"/>
			</g>
			<path fill="#FFFFFF" d="M301.7,167c0,0.5,0,1,0,1.5c0,8,6.7,14.8,14.9,14.9l0,0c8.2-0.1,14.9-6.9,14.9-14.9c0-0.5,0-1,0-1.5
				C321.7,165.5,311.6,165.5,301.7,167z"/>
		</g>
		<path fill="#552419" d="M360.9,111.2c-7-23.9-31.6-29.3-44.2-29.3c-12.6,0-37.3,5.3-44.3,29.3s3.1,34.2,3.1,34.2
			s11.6-12.9,11.6-34.7c0,0,12.4,3.2,29.6,3.2c17.2,0,29.5-3.2,29.5-3.2c0,21.8,11.6,34.7,11.6,34.7S367.9,135.1,360.9,111.2z"/>
	</g>
	<g>
		<g>
			<path fill="#552419" d="M108,106.3l-43.4-8.9c0,0-45.2,60.9,5.4,99.4H108L108,106.3z"/>
			<path fill="#552419" d="M108,106.3l43.4-8.9c0,0,45.2,60.9-5.4,99.4H108L108,106.3z"/>
		</g>
		<g>
			<path fill="#9B1C51" d="M49.8,254.4L49.8,254.4l116.3,0v0c0-18.9-15.3-34.2-34.2-34.2H84C65.1,220.2,49.8,235.5,49.8,254.4z"/>
			<g>
				<g>
					<circle fill="#F8AA97" cx="153.4" cy="157.3" r="12.7"/>
					<circle fill="#F58A74" cx="153.4" cy="157.3" r="7.5"/>
				</g>
				<g>
					<circle fill="#F8AA97" cx="62.5" cy="157.3" r="12.7"/>
					<circle fill="#F58A74" cx="62.5" cy="157.3" r="7.5"/>
				</g>
			</g>
			<path fill="#AA4D67" d="M108,240.4c10.1,0,18.2-8.2,18.2-18.2v-2H89.7v2C89.7,232.2,97.9,240.4,108,240.4z"/>
			<path fill="#F8AA97" d="M96.1,183.5v38.7c0,6.5,5.3,11.9,11.9,11.9h0c6.5,0,11.9-5.3,11.9-11.9v-38.7H96.1z"/>
			<path fill="#F58A74" d="M96.1,202.8c0,6.5,5.2,12,11.7,12.1c0,0,0.1,0,0.1,0l0,0c0,0,0.1,0,0.1,0c6.5,0,11.7-5.5,11.7-12.1v-15.6
				H96.1V202.8z"/>
			<path fill="#F8AA97" d="M66.8,122.5v40.6c0,22.7,18.4,41.2,41.2,41.2h0c22.7,0,41.2-18.4,41.2-41.2v-40.6
				c0-15.3-12.4-27.7-27.7-27.7h-27C79.2,94.8,66.8,107.2,66.8,122.5z"/>
			<g>
				<circle fill="#562617" cx="85.9" cy="144.6" r="4.9"/>
				<circle fill="#562617" cx="130.1" cy="144.6" r="4.9"/>
			</g>
			<path fill="#FFFFFF" d="M93.1,167c0,0.5,0,1,0,1.5c0,8,6.7,14.8,14.9,14.9l0,0c8.2-0.1,14.9-6.9,14.9-14.9c0-0.5,0-1,0-1.5
				C113,165.5,103,165.5,93.1,167z"/>
		</g>
		<path fill="#552419" d="M108,81.9c-65.9,0-45.5,48.7-45.5,48.7h25.7l2.6-12.5l2.6,12.5v0h37.8l2.6-12.5l2.6,12.5v0h17.2
			C153.4,130.6,173.9,81.9,108,81.9z"/>
	</g>
	<g>
		<g>
			<path fill="#360B00" d="M66.9,502c0,0,17.3,15.9,40.9,15.9V374.2l-45.4,24.5L53,468L66.9,502z"/>
			<path fill="#360B00" d="M149,502c0,0-17.3,15.9-40.9,15.9V374.2l45.4,24.5l9.4,69.4L149,502z"/>
		</g>
		<path fill="#552419" d="M171.3,424.7c-11.5-56.2-27.4-75.5-63.4-75.5v34.5c0,0,49.4,26.9,41.2,118.3
			C149.1,502,182.8,480.9,171.3,424.7z"/>
		<g>
			<path fill="#EC008C" d="M49.7,521.7L49.7,521.7l116.3,0v0c0-18.9-15.3-34.2-34.2-34.2H83.9C65.1,487.5,49.7,502.8,49.7,521.7z"/>
			<path fill="#F287B7" d="M107.8,521.7h0.2c21.7-8.6,25.5-33.2,25.6-34.1c-0.6,0-1.2,0-1.8,0h-10.1H108h-0.2H94H83.9
				c-0.6,0-1.2,0-1.8,0C82.3,488.5,86.1,513.2,107.8,521.7z"/>
			<path fill="#F8AA97" d="M128,487.5h-9.3H108h-0.1H97.1h-9.3c0,0,2.8,20.5,20,27.5v0.1c0,0,0,0,0.1,0c0,0,0,0,0.1,0V515
				C125.3,508,128,487.5,128,487.5z"/>
			<g>
				<g>
					<circle fill="#F8AA97" cx="153.4" cy="424.6" r="12.7"/>
					<circle fill="#F58A74" cx="153.4" cy="424.6" r="7.5"/>
				</g>
				<g>
					<circle fill="#F8AA97" cx="62.4" cy="424.6" r="12.7"/>
					<circle fill="#F58A74" cx="62.4" cy="424.6" r="7.5"/>
				</g>
			</g>
			<path fill="#F8AA97" d="M96,450.8v38.7c0,6.5,5.3,11.9,11.9,11.9h0c6.5,0,11.9-5.3,11.9-11.9v-38.7H96z"/>
			<path fill="#F58A74" d="M96,470.1c0,6.5,5.2,12,11.7,12.1c0,0,0.1,0,0.1,0l0,0c0,0,0.1,0,0.1,0c6.5,0,11.7-5.5,11.7-12.1v-15.6
				H96V470.1z"/>
			<path fill="#F8AA97" d="M66.7,389.8v40.6c0,22.7,18.4,41.2,41.2,41.2h0c22.7,0,41.2-18.4,41.2-41.2v-40.6
				c0-15.3-12.4-27.7-27.7-27.7h-27C79.1,362.1,66.7,374.5,66.7,389.8z"/>
			<g>
				<circle fill="#562617" cx="85.8" cy="411.9" r="4.9"/>
				<circle fill="#562617" cx="130" cy="411.9" r="4.9"/>
			</g>
			<path fill="#FFFFFF" d="M93,434.3c0,0.5,0,1,0,1.5c0,8,6.7,14.8,14.9,14.9l0,0c8.2-0.1,14.9-6.9,14.9-14.9c0-0.5,0-1,0-1.5
				C112.9,432.8,102.9,432.8,93,434.3z"/>
			<circle fill="#B9E5FB" cx="154.7" cy="435.5" r="2.7"/>
			<circle fill="#B9E5FB" cx="60.7" cy="435.5" r="2.7"/>
		</g>
		<path fill="#552419" d="M107.9,349.2l0.1,24.4c0,0,2.6,9.1,10.7,18.8c1.5,1.5,3.1,3.2,4.8,5.2c6.1,5.9,14.4,11.6,25.5,15.1h19.6
			C157.3,365.8,141.2,349.2,107.9,349.2z"/>
		<path fill="#552419" d="M66.2,492.5c-4.1-84.4,41.8-118.2,41.8-118.2v-25c-36,0-51.9,19.3-63.4,75.5c-8.3,40.4,6.9,62.7,16,72
			C62.3,495.1,64.2,493.7,66.2,492.5z"/>
	</g>
	<g>
		<path fill="#1C75BC" d="M467.1,521.7L467.1,521.7l116.3,0v0c0-18.9-15.3-34.2-34.2-34.2h-47.9
			C482.4,487.5,467.1,502.8,467.1,521.7z"/>
		<polygon fill="#27AAE1" points="501.2,487.5 525.3,521.7 549.4,487.5 		"/>
		<polygon fill="#DCDDDE" points="506,487.5 525.3,514.8 544.5,487.5 		"/>
		<g>
			<g>
				<circle fill="#F8AA97" cx="570.7" cy="424.6" r="12.7"/>
				<circle fill="#F58A74" cx="570.7" cy="424.6" r="7.5"/>
			</g>
			<g>
				<circle fill="#F8AA97" cx="479.8" cy="424.6" r="12.7"/>
				<circle fill="#F58A74" cx="479.8" cy="424.6" r="7.5"/>
			</g>
		</g>
		<polygon fill="#F8AA97" points="513.4,450.6 513.4,481.3 525.3,496.1 537.1,481.3 537.1,450.6 		"/>
		<path fill="#F58A74" d="M513.4,470.1c0,6.5,5.2,12,11.7,12.1c0,0,0.1,0,0.1,0l0,0c0,0,0.1,0,0.1,0c6.5,0,11.7-5.5,11.7-12.1v-15.6
			h-23.7V470.1z"/>
		<path fill="#F8AA97" d="M484.1,389.8v40.6c0,22.7,18.4,41.2,41.2,41.2h0c22.7,0,41.2-18.4,41.2-41.2v-40.6
			c0-15.3-12.4-27.7-27.7-27.7h-27C496.5,362.1,484.1,374.5,484.1,389.8z"/>
		<g>
			<circle fill="#562617" cx="503.2" cy="411.9" r="4.9"/>
			<circle fill="#562617" cx="547.3" cy="411.9" r="4.9"/>
		</g>
		<path fill="#E19B8A" d="M560.7,451.4c-4.2-6.9-14.4-18.3-35.4-18.3c-21,0-31.2,11.4-35.4,18.3c7.2,12,20.3,20.1,35.4,20.1l0,0
			C540.3,471.6,553.5,463.5,560.7,451.4z"/>
		<path fill="#FFFFFF" d="M510.4,434.3c0,0.5,0,1,0,1.5c0,8,6.7,14.8,14.9,14.9l0,0c8.2-0.1,14.9-6.9,14.9-14.9c0-0.5,0-1,0-1.5
			C530.3,432.8,520.2,432.8,510.4,434.3z"/>
		<path fill="#552419" d="M525.3,429.4c-11.2,0.1-20.3,5.6-20.3,12c0,0.4,0,0.8,0,1.2c9.2,0.8,20.3-2.9,20.3-2.9s11.1,3.7,20.3,2.9
			c0,0,0,0,0,0c0,0,0,0,0,0c0-0.4,0-0.8,0-1.2C545.6,434.9,536.5,429.5,525.3,429.4z"/>
		<path fill="#552419" d="M569.5,378.5c-7-23.9-31.6-29.3-44.2-29.3c-12.6,0-37.3,5.3-44.3,29.3c-7,23.9,3.1,34.2,3.1,34.2
			s11.6-12.9,11.6-34.7c0,0,12.4,3.2,29.6,3.2c17.2,0,29.5-3.2,29.5-3.2c0,21.8,11.6,34.7,11.6,34.7S576.6,402.4,569.5,378.5z"/>
		<path fill="#552419" d="M495.7,377.9c0,0,10.1,20,44.5,18.8C540.2,396.8,534.9,380.2,495.7,377.9z"/>
		<path fill="#552419" d="M495.7,377.9c0,0,22,19.5,70.8,11.9c0,0,3.4-23.3-29.3-25.2C504.4,362.6,495.7,377.9,495.7,377.9z"/>
		<g>
			<polygon fill="#F1F2F2" points="525.3,496.1 513.4,481.3 506,487.5 512.4,508.4 518.6,493.9 			"/>
			<polygon fill="#F1F2F2" points="525.3,496.1 537.1,481.3 544.5,487.5 538.2,508.4 532,493.9 			"/>
		</g>
		<circle fill="#808285" cx="525.3" cy="502.2" r="2.4"/>
	</g>
	<g>
		<path fill="#F15A29" d="M258.5,521.7L258.5,521.7l116.3,0v0c0-18.9-15.3-34.2-34.2-34.2h-47.9
			C273.8,487.5,258.5,502.8,258.5,521.7z"/>
		<polygon fill="#F8AA97" points="304.8,450.6 304.8,481.3 316.6,496.1 328.5,481.3 328.5,450.6 		"/>
		<path fill="#F58A74" d="M304.8,470.1c0,6.5,5.2,12,11.7,12.1c0,0,0.1,0,0.1,0l0,0c0,0,0.1,0,0.1,0c6.5,0,11.7-5.5,11.7-12.1v-15.6
			h-23.7V470.1z"/>
		<g>
			<polygon fill="#F7941E" points="316.6,496.1 304.8,481.3 297.4,487.5 303.7,508.4 309.9,493.9 			"/>
			<polygon fill="#F7941E" points="316.6,496.1 328.5,481.3 335.8,487.5 329.5,508.4 323.3,493.9 			"/>
		</g>
		<g>
			<circle fill="#FFFFFF" cx="316.6" cy="502.2" r="2.4"/>
			<circle fill="#FFFFFF" cx="316.6" cy="517.4" r="2.4"/>
		</g>
		<g>
			<g>
				<g>
					<circle fill="#F8AA97" cx="362.1" cy="424.6" r="12.7"/>
					<circle fill="#F58A74" cx="362.1" cy="424.6" r="7.5"/>
				</g>
				<g>
					<circle fill="#F8AA97" cx="271.2" cy="424.6" r="12.7"/>
					<circle fill="#F58A74" cx="271.2" cy="424.6" r="7.5"/>
				</g>
			</g>
			<path fill="#F8AA97" d="M275.4,403.3v27.1c0,22.7,18.4,41.2,41.2,41.2h0c22.7,0,41.2-18.4,41.2-41.2v-27.1
				c0-22.7-18.4-41.2-41.2-41.2h0C293.9,362.1,275.4,380.6,275.4,403.3z"/>
			<g>
				<circle fill="#562617" cx="294.5" cy="411.9" r="4.9"/>
				<circle fill="#562617" cx="338.7" cy="411.9" r="4.9"/>
			</g>
			<path fill="#E6E7E8" d="M347.8,465.5c9.4-7.3,9.1-21.6-0.8-28.3c-7.1-4.8-16.9-8.6-30.4-8.6s-23.3,3.8-30.4,8.6
				c-9.9,6.7-10.2,21-0.8,28.3c8.6,6.7,19.4,10.6,31.2,10.6l0,0C328.4,476.1,339.2,472.1,347.8,465.5z"/>
			<path fill="#FFFFFF" d="M301.7,434.3c0,0.5,0,1,0,1.5c0,8,6.7,14.8,14.9,14.9l0,0c8.2-0.1,14.9-6.9,14.9-14.9c0-0.5,0-1,0-1.5
				C321.7,432.8,311.6,432.8,301.7,434.3z"/>
			<path fill="#E6E7E8" d="M356.8,420.9c0,0-11.3-17.4-4.8-39.2c0,0,11.4,4.9,13.2,11s-1.8,6-1.8,6s8.2,17.2-1,15.8
				C362.3,414.5,360,418.8,356.8,420.9z"/>
			<path fill="#E6E7E8" d="M277,420.9c0,0,11.3-17.4,4.8-39.2c0,0-11.4,4.9-13.2,11c-1.8,6.1,1.8,6,1.8,6s-8.2,17.2,1,15.8
				C271.5,414.5,273.7,418.8,277,420.9z"/>
			<ellipse fill="#FABEAF" cx="316.6" cy="369.6" rx="10.8" ry="3.9"/>
		</g>
		<g>
			<rect x="339.2" y="487.5" fill="#562617" width="8" height="34.2"/>
			<rect x="286.1" y="487.5" fill="#562617" width="8" height="34.2"/>
		</g>
	</g>
	<g>
		<g>
			<path fill="#D1D3D4" d="M692.8,502c0,0,17.3,15.9,40.9,15.9V374.2l-45.4,24.5L679,468L692.8,502z"/>
			<path fill="#D1D3D4" d="M774.9,502c0,0-17.3,15.9-40.9,15.9V374.2l45.4,24.5l9.4,69.4L774.9,502z"/>
		</g>
		<path fill="#E6E7E8" d="M670.5,424.7c11.5-56.2,27.4-75.5,63.4-75.5v34.5c0,0-49.4,26.9-41.2,118.3
			C692.8,502,659,480.9,670.5,424.7z"/>
		<path fill="#E6E7E8" d="M797.3,424.7c-11.5-56.2-27.4-75.5-63.4-75.5v34.5c0,0,49.4,26.9,41.2,118.3
			C775,502,808.8,480.9,797.3,424.7z"/>
		<g>
			<path fill="#EC008C" d="M675.7,521.7L675.7,521.7l116.3,0v0c0-18.9-15.3-34.2-34.2-34.2h-47.9C691,487.5,675.7,502.8,675.7,521.7
				z"/>
			<g>
				<g>
					<circle fill="#F8AA97" cx="779.3" cy="424.6" r="12.7"/>
					<circle fill="#F58A74" cx="779.3" cy="424.6" r="7.5"/>
				</g>
				<g>
					<circle fill="#F8AA97" cx="688.4" cy="424.6" r="12.7"/>
					<circle fill="#F58A74" cx="688.4" cy="424.6" r="7.5"/>
				</g>
			</g>
			<path fill="#F8AA97" d="M722,450.8v38.7c0,6.5,5.3,11.9,11.9,11.9l0,0c6.5,0,11.9-5.3,11.9-11.9v-38.7H722z"/>
			<path fill="#F58A74" d="M722,470.1c0,6.5,5.2,12,11.7,12.1c0,0,0.1,0,0.1,0l0,0c0,0,0.1,0,0.1,0c6.5,0,11.7-5.5,11.7-12.1v-15.6
				H722V470.1z"/>
			<path fill="#F8AA97" d="M692.6,389.8v40.6c0,22.7,18.4,41.2,41.2,41.2h0c22.7,0,41.2-18.4,41.2-41.2v-40.6
				c0-15.3-12.4-27.7-27.7-27.7h-27C705,362.1,692.6,374.5,692.6,389.8z"/>
			<g>
				<circle fill="#562617" cx="711.7" cy="411.9" r="4.9"/>
				<circle fill="#562617" cx="755.9" cy="411.9" r="4.9"/>
			</g>
			<path fill="#FFFFFF" d="M718.9,434.3c0,0.5,0,1,0,1.5c0,8,6.7,14.8,14.9,14.9l0,0c8.2-0.1,14.9-6.9,14.9-14.9c0-0.5,0-1,0-1.5
				C738.9,432.8,728.8,432.8,718.9,434.3z"/>
			<circle fill="#B9E5FB" cx="780.6" cy="435.5" r="2.7"/>
			<circle fill="#B9E5FB" cx="686.7" cy="435.5" r="2.7"/>
			<rect x="719" y="478.7" fill="#EC008C" width="29.8" height="25.9"/>
			<circle fill="#F8C1D9" cx="725.1" cy="504" r="2"/>
			<g>
				<g>
					<circle fill="#FCDFEB" cx="714.2" cy="487.7" r="2.2"/>
					<circle fill="#FCDFEB" cx="714.2" cy="492.2" r="2.2"/>
					<circle fill="#FCDFEB" cx="715.9" cy="496.3" r="2.2"/>
					<circle fill="#FCDFEB" cx="718.1" cy="500.1" r="2.2"/>
					<circle fill="#FCDFEB" cx="721.4" cy="503.1" r="2.2"/>
					<circle fill="#FCDFEB" cx="724.9" cy="506.1" r="2.2"/>
					<circle fill="#FCDFEB" cx="729.4" cy="507.6" r="2.2"/>
					<circle fill="#FCDFEB" cx="733.9" cy="508.4" r="2.2"/>
				</g>
				<g>
					<circle fill="#FCDFEB" cx="753.6" cy="487.7" r="2.2"/>
					<circle fill="#FCDFEB" cx="753.6" cy="492.2" r="2.2"/>
					<circle fill="#FCDFEB" cx="751.9" cy="496.3" r="2.2"/>
					<circle fill="#FCDFEB" cx="749.7" cy="500.1" r="2.2"/>
					<circle fill="#FCDFEB" cx="746.4" cy="503.1" r="2.2"/>
					<circle fill="#FCDFEB" cx="742.9" cy="506.1" r="2.2"/>
					<circle fill="#FCDFEB" cx="738.4" cy="507.6" r="2.2"/>
				</g>
			</g>
		</g>
		<g>
			<g>
				<g>
					
						<rect x="757.5" y="414" transform="matrix(0.944 -0.33 0.33 0.944 -93.8592 276.1257)" fill="#6D6E71" width="18.1" height="1.2"/>
				</g>
				<g>
					
						<rect x="700.5" y="405.5" transform="matrix(0.33 -0.944 0.944 0.33 78.4094 939.577)" fill="#6D6E71" width="1.2" height="18.1"/>
				</g>
			</g>
			<g>
				<path fill="#6D6E71" d="M741.3,418.6c-4.5-2.8-10.1-2.8-14.6,0l-0.6-1c4.9-3,10.9-3,15.8,0L741.3,418.6z"/>
			</g>
			<path fill="#D4EFFC" d="M707.3,417.6v4.9c0,1.7,1.4,3.1,3.1,3.1h14.2c1.7,0,3.1-1.4,3.1-3.1v-4.9c0-1.7-1.4-3.1-3.1-3.1h-14.2
				C708.7,414.6,707.3,415.9,707.3,417.6z"/>
			<path fill="#D4EFFC" d="M739.9,417.6v4.9c0,1.7,1.4,3.1,3.1,3.1h14.2c1.7,0,3.1-1.4,3.1-3.1v-4.9c0-1.7-1.4-3.1-3.1-3.1H743
				C741.3,414.6,739.9,415.9,739.9,417.6z"/>
			<g>
				<polygon fill="#FFFFFF" points="753.3,414.6 749.3,425.6 752.3,425.6 756.3,414.6 				"/>
				<polygon fill="#FFFFFF" points="756.8,414.6 752.8,425.6 753.7,425.6 757.8,414.6 				"/>
			</g>
			<g>
				<polygon fill="#FFFFFF" points="719.2,414.6 715.1,425.6 718.2,425.6 722.2,414.6 				"/>
				<polygon fill="#FFFFFF" points="722.7,414.6 718.7,425.6 719.6,425.6 723.6,414.6 				"/>
			</g>
		</g>
		<path fill="#E6E7E8" d="M733.8,349.2l0.1,24.4c0,0,2.6,9.1,10.7,18.8c1.5,1.5,3.1,3.2,4.8,5.2c6.1,5.9,14.4,11.6,25.5,15.1h19.6
			C783.3,365.8,767.2,349.2,733.8,349.2z"/>
		<path fill="#E6E7E8" d="M734,349.2l-0.1,24.4c0,0-2.6,9.1-10.7,18.8c-1.5,1.5-3.1,3.2-4.8,5.2c-6.1,5.9-14.4,11.6-25.5,15.1h-19.6
			C684.6,365.8,700.7,349.2,734,349.2z"/>
	</g>
	<g>
		<path fill="#594A42" d="M675.7,254.4L675.7,254.4l116.3,0v0c0-18.9-15.3-34.2-34.2-34.2h-47.9
			C691.1,220.2,675.7,235.5,675.7,254.4z"/>
		<g>
			<g>
				<circle fill="#F8AA97" cx="779.4" cy="157.3" r="12.7"/>
				<circle fill="#F58A74" cx="779.4" cy="157.3" r="7.5"/>
			</g>
			<g>
				<circle fill="#F8AA97" cx="688.4" cy="157.3" r="12.7"/>
				<circle fill="#F58A74" cx="688.4" cy="157.3" r="7.5"/>
			</g>
		</g>
		<rect x="715.7" y="220.2" fill="#FFC62D" width="36.5" height="34.2"/>
		<path fill="#726658" d="M733.9,240.4c10.1,0,18.2-8.2,18.2-18.2v-2h-36.5v2C715.7,232.2,723.8,240.4,733.9,240.4z"/>
		<path fill="#F8AA97" d="M722,183.5v38.7c0,6.5,5.3,11.9,11.9,11.9l0,0c6.5,0,11.9-5.3,11.9-11.9v-38.7H722z"/>
		<path fill="#F58A74" d="M722,202.8c0,6.5,5.2,12,11.7,12.1c0,0,0.1,0,0.1,0l0,0c0,0,0.1,0,0.1,0c6.5,0,11.7-5.5,11.7-12.1v-15.6
			H722V202.8z"/>
		<path fill="#F8AA97" d="M692.7,122.5v40.6c0,22.7,18.4,41.2,41.2,41.2h0c22.7,0,41.2-18.4,41.2-41.2v-40.6
			c0-15.3-12.4-27.7-27.7-27.7h-27C705.1,94.8,692.7,107.2,692.7,122.5z"/>
		<path fill="#E19B8A" d="M775.1,145.4c0,0,0,11.1-3.5,21.6c-1.6,4.6-7.4,6.1-11,2.9c-5.8-5.3-14.4-9.7-26.6-9.7
			c-12.2,0-20.7,4.4-26.6,9.7c-3.6,3.3-9.5,1.8-11-2.9c-3.6-10.5-3.5-21.6-3.5-21.6s0,0,0,0.1v16.8c0,23.1,18.9,42.4,42,42
			c22.4-0.4,40.4-18.7,40.4-41.2L775.1,145.4C775.1,145.4,775.1,145.4,775.1,145.4z"/>
		<g>
			<circle fill="#562617" cx="711.8" cy="144.6" r="4.9"/>
			<circle fill="#562617" cx="756" cy="144.6" r="4.9"/>
		</g>
		<path fill="#FFFFFF" d="M719,167c0,0.5,0,1,0,1.5c0,8,6.7,14.8,14.9,14.9l0,0c8.2-0.1,14.9-6.9,14.9-14.9c0-0.5,0-1,0-1.5
			C738.9,165.5,728.9,165.5,719,167z"/>
		<path fill="#552419" d="M777.4,94.8c0,0,6.5-9.8,1.9-12.9c-4.6-3.1-16.9,1.5-16.9,1.5s4.6-6.5-1.6-9.4c-6.2-2.9-20.7,7.8-20.7,7.8
			s4.6-5.7-2.7-7.6c-7.3-1.9-44.9,10-49.1,32.6c-3.8,20.3,4.2,38.5,4.2,38.5h0.1c0,0,11.6-12.9,11.6-34.7c0,0,12.4,3.2,29.6,3.2
			c17.2,0,29.5-3.2,29.5-3.2c0,21.8,11.6,34.7,11.6,34.7h0C792.1,108,777.4,94.8,777.4,94.8z"/>
		<path fill="#9B8579" d="M752.1,254.4v-34.2h-6.4v-17.4c0,0,19.8,1,28,21.3l-12.9,30.3H752.1z"/>
		<path fill="#9B8579" d="M715.7,254.4v-34.2h6.4v-17.4c0,0-19.8,1-28,21.3l12.9,30.3H715.7z"/>
	</g>
	<g>
		<path fill="#00C0F3" d="M485.2,254.4L485.2,254.4l80,0v0c0-15.4-12.5-27.8-27.8-27.8h-24.4C497.7,226.6,485.2,239.1,485.2,254.4z"
			/>
		<g>
			<g>
				<circle fill="#F8AA97" cx="570.7" cy="179.2" r="9.2"/>
				<circle fill="#F58A74" cx="570.7" cy="179.2" r="5.4"/>
			</g>
			<g>
				<circle fill="#F8AA97" cx="479.8" cy="179.2" r="9.2"/>
				<circle fill="#F58A74" cx="479.8" cy="179.2" r="5.4"/>
			</g>
		</g>
		<path fill="#F8AA97" d="M513.4,190v38.7c0,6.5,5.3,11.9,11.9,11.9h0c6.5,0,11.9-5.3,11.9-11.9V190H513.4z"/>
		<path fill="#F58A74" d="M513.4,220.2c0,6.5,5.2,12,11.7,12.1c0,0,0.1,0,0.1,0l0,0c0,0,0.1,0,0.1,0c6.5,0,11.7-5.5,11.7-12.1v-15.6
			h-23.7V220.2z"/>
		<path fill="#F8AA97" d="M484.1,172.5v12.4c0,22.7,18.4,41.2,41.2,41.2h0c22.7,0,41.2-18.4,41.2-41.2v-12.4
			c0-22.7-18.4-41.2-41.2-41.2h0C502.5,131.3,484.1,149.8,484.1,172.5z"/>
		<g>
			<circle fill="#562617" cx="508.2" cy="174.6" r="3.8"/>
			<circle fill="#562617" cx="542.3" cy="174.6" r="3.8"/>
		</g>
		<g>
			<path fill="#8DC63F" d="M527.1,187.7h-3.6c-6.6,0-11.9,5.3-11.9,11.9v0c0,6.6,5.3,11.9,11.9,11.9h3.6c6.6,0,11.9-5.3,11.9-11.9v0
				C538.9,193,533.6,187.7,527.1,187.7z"/>
			<g>
				<path fill="#FFFFFF" d="M525.3,211.4c-1.7,0-3.4-0.7-4.6-1.9c-1.2-1.2-1.9-2.9-1.9-4.6c0-1.7,0.7-3.4,1.9-4.6l1.9,1.9
					c-0.7,0.7-1.1,1.7-1.1,2.8c0,1,0.4,2,1.1,2.8c0.7,0.7,1.7,1.1,2.8,1.1s2-0.4,2.8-1.1c0.7-0.7,1.1-1.7,1.1-2.8c0-1-0.4-2-1.1-2.8
					l1.9-1.9c1.2,1.2,1.9,2.9,1.9,4.6c0,1.7-0.7,3.4-1.9,4.6C528.7,210.7,527,211.4,525.3,211.4z"/>
			</g>
			<path fill="#009444" d="M526,194.6h-1.5c-2.8,0-5,2.3-5,5v0c0,2.8,2.3,5,5,5h1.5c2.8,0,5-2.3,5-5v0
				C531.1,196.8,528.8,194.6,526,194.6z"/>
		</g>
		<g>
			<path fill="#552419" d="M510.6,143c0,0-1.8,7.5,9.7,13.5C520.3,156.5,521.3,147.9,510.6,143z"/>
			<path fill="#552419" d="M520.4,143c0,0-1.8,7.5,9.7,13.5C530.2,156.5,531.2,147.9,520.4,143z"/>
			<path fill="#552419" d="M530.3,143c0,0-1.8,7.5,9.7,13.5C540,156.5,541,147.9,530.3,143z"/>
		</g>
	</g>
</g>
</svg>
