<svg width="1600" height="968" viewBox="0 0 1600 968" fill="none" xmlns="http://www.w3.org/2000/svg">
<line x1="101.591" y1="-0.000366211" x2="101.591" y2="968" stroke="white" stroke-width="2"/>
<line x1="202" x2="202" y2="968" stroke="white" stroke-width="2"/>
<line x1="302" x2="302" y2="968" stroke="white" stroke-width="2"/>
<line x1="402" x2="402" y2="968" stroke="white" stroke-width="2"/>
<line x1="502" x2="502" y2="968" stroke="white" stroke-width="2"/>
<line x1="602" x2="602" y2="968" stroke="white" stroke-width="2"/>
<line x1="702" x2="702" y2="968" stroke="white" stroke-width="2"/>
<line x1="802" x2="802" y2="968" stroke="white" stroke-width="2"/>
<line x1="901" x2="901" y2="968" stroke="white" stroke-width="2"/>
<line x1="1002" x2="1002" y2="968" stroke="white" stroke-width="2"/>
<line x1="1102" x2="1102" y2="968" stroke="white" stroke-width="2"/>
<line x1="1202" x2="1202" y2="968" stroke="white" stroke-width="2"/>
<line x1="1302" x2="1302" y2="968" stroke="white" stroke-width="2"/>
<line x1="1403" x2="1403" y2="968" stroke="white" stroke-width="2"/>
<line x1="1501" x2="1501" y2="968" stroke="white" stroke-width="2"/>
<line x1="-0.00375366" y1="198.544" x2="1600" y2="198.544" stroke="white" stroke-width="2"/>
<line x1="-0.00375366" y1="299.544" x2="1600" y2="299.544" stroke="white" stroke-width="2"/>
<line x1="-0.00375366" y1="400.544" x2="1600" y2="400.544" stroke="white" stroke-width="2"/>
<line x1="-0.00375366" y1="500.544" x2="1600" y2="500.544" stroke="white" stroke-width="2"/>
<line x1="-0.00375366" y1="600.544" x2="1600" y2="600.544" stroke="white" stroke-width="2"/>
<line x1="-0.00375366" y1="699.544" x2="1600" y2="699.544" stroke="white" stroke-width="2"/>
<line x1="-0.00375366" y1="800.544" x2="1600" y2="800.544" stroke="white" stroke-width="2"/>
<line x1="-0.00375366" y1="900.544" x2="1600" y2="900.544" stroke="white" stroke-width="2"/>
</svg>
